<svg width="167" height="36" viewBox="0 0 167 36" fill="none" xmlns="http://www.w3.org/2000/svg">
<g clip-path="url(#clip0_382_519)">
<path d="M134.657 2.82227V33.1516H139.144V2.82227H134.657Z" fill="#000628"/>
<path fill-rule="evenodd" clip-rule="evenodd" d="M94.0863 33.6408C92.3156 33.6408 90.8365 33.2328 89.6488 32.4167C89.5187 32.3277 89.3926 32.2347 89.2695 32.1383V33.1512H85.3104V3.31152H89.8304V16.0948C90.9392 15.3895 92.2806 15.0368 93.8552 15.0368C95.5597 15.0368 97.0442 15.4394 98.3091 16.2444C99.5739 17.0495 100.553 18.1538 101.245 19.5572C101.949 20.9499 102.301 22.5437 102.301 24.3387C102.301 26.1012 101.954 27.6842 101.262 29.0878C100.58 30.4912 99.623 31.6009 98.3916 32.4167C97.1599 33.2328 95.7249 33.6408 94.0863 33.6408ZM89.6653 21.5319C89.4012 22.3368 89.2695 23.2724 89.2695 24.3387C89.2695 25.4048 89.4012 26.3408 89.6653 27.1456C89.9291 27.9509 90.3583 28.5762 90.9518 29.0225C91.5567 29.4685 92.3596 29.6913 93.3603 29.6913C94.3279 29.6913 95.12 29.4522 95.7359 28.9736C96.3518 28.4948 96.808 27.853 97.1048 27.0477C97.4019 26.2319 97.5501 25.329 97.5501 24.3387C97.5501 23.3595 97.3964 22.4676 97.0883 21.6627C96.7805 20.8465 96.3022 20.1991 95.6533 19.7204C95.0154 19.2309 94.1959 18.986 93.1952 18.986C92.2605 18.986 91.5016 19.2091 90.9191 19.6552C90.3473 20.1012 89.9291 20.7267 89.6653 21.5319Z" fill="#000628"/>
<path d="M78.2166 22.7394V33.1512H82.7031V21.5647C82.7031 19.6389 82.1808 18.083 81.1361 16.8972C80.1024 15.7005 78.5683 15.1021 76.5339 15.1021C75.3462 15.1021 74.263 15.3631 73.2843 15.8854C72.3883 16.3589 71.6571 17.0095 71.0912 17.8376C70.669 17.0861 70.0858 16.468 69.3417 15.9834C68.4512 15.3958 67.3074 15.1021 65.9109 15.1021C64.6901 15.1021 63.5849 15.3686 62.5952 15.9017C61.8473 16.3091 61.2149 16.8277 60.698 17.4574V15.5264H56.7394V33.1512H61.2589V22.4784C61.2589 21.4666 61.5395 20.6452 62.1004 20.0142C62.6723 19.3723 63.4253 19.0513 64.36 19.0513C65.3391 19.0513 66.1031 19.3777 66.6529 20.0305C67.2139 20.6725 67.4944 21.5756 67.4944 22.7394V33.1512H71.981V22.4784C71.981 21.8037 72.1076 21.2108 72.3607 20.6996C72.6244 20.1773 72.9873 19.7748 73.4494 19.492C73.9112 19.1982 74.4555 19.0513 75.0824 19.0513C76.0612 19.0513 76.8252 19.3777 77.3751 20.0305C77.9359 20.6725 78.2166 21.5756 78.2166 22.7394Z" fill="#000628"/>
<path d="M40.6641 32.9716C41.5438 33.4393 42.682 33.6734 44.0788 33.6734C45.8271 33.6734 47.2735 33.2982 48.4172 32.5474C48.9599 32.1947 49.4383 31.7899 49.8522 31.3338V33.1512H53.8113V15.5264H49.2913V24.4692C49.2913 25.5572 49.1648 26.4384 48.9121 27.1129C48.6699 27.7767 48.3567 28.2826 47.9714 28.6306C47.5867 28.9682 47.1744 29.1963 46.7347 29.3161C46.2948 29.4359 45.8822 29.4957 45.4974 29.4957C44.5406 29.4957 43.7982 29.2834 43.2703 28.8592C42.7535 28.435 42.3798 27.9073 42.1486 27.2763C41.9179 26.6452 41.7804 26.0196 41.7363 25.3993C41.6923 24.7687 41.6703 24.2519 41.6703 23.8491V15.5264H37.1177V25.4157C37.1177 25.7097 37.1393 26.1774 37.1834 26.8195C37.2274 27.4613 37.3539 28.1738 37.563 28.9573C37.7717 29.7295 38.1185 30.4749 38.6022 31.1931C39.0971 31.9109 39.7844 32.5038 40.6641 32.9716Z" fill="#000628"/>
<path d="M104.281 15.5261V33.1509H108.8V24.1426C108.8 23.4681 108.894 22.8643 109.081 22.3311C109.268 21.7871 109.543 21.3194 109.906 20.9278C110.269 20.5251 110.714 20.2043 111.242 19.965C111.77 19.7148 112.358 19.5678 113.007 19.5244C113.666 19.4699 114.244 19.5189 114.739 19.6712V15.5261C114.2 15.4608 113.661 15.4499 113.122 15.4934C112.583 15.5261 112.061 15.6185 111.555 15.7709C111.049 15.9124 110.582 16.1135 110.153 16.3747C109.592 16.7011 109.119 17.1144 108.735 17.615C108.552 17.8518 108.387 18.101 108.239 18.3622V15.5261H104.281Z" fill="#000628"/>
<path fill-rule="evenodd" clip-rule="evenodd" d="M124.186 33.6405C122.361 33.6405 120.75 33.2545 119.353 32.4818C117.967 31.6987 116.878 30.6271 116.087 29.2669C115.306 27.8963 114.916 26.3297 114.916 24.5671C114.916 22.6415 115.3 20.9661 116.07 19.5408C116.84 18.1156 117.901 17.0113 119.254 16.2279C120.606 15.4338 122.163 15.0366 123.922 15.0366C125.792 15.0366 127.381 15.4718 128.69 16.3422C129.998 17.2125 130.966 18.4364 131.592 20.0141C132.22 21.5917 132.44 23.4464 132.253 25.5789H119.743C119.883 26.6369 120.215 27.4962 120.739 28.1572C121.464 29.0496 122.526 29.4956 123.922 29.4956C124.802 29.4956 125.555 29.3051 126.182 28.9244C126.809 28.5437 127.287 27.9943 127.617 27.2761L132.104 28.5491C131.434 30.1592 130.372 31.4102 128.92 32.3022C127.48 33.1945 125.902 33.6405 124.186 33.6405ZM126.941 20.0792C127.324 20.5946 127.582 21.3292 127.713 22.2822H119.861C120.036 21.4684 120.329 20.7992 120.739 20.2752C121.464 19.3503 122.592 18.8879 124.12 18.8879C125.429 18.8879 126.369 19.2851 126.941 20.0792Z" fill="#000628"/>
<path d="M142.769 33.1516V2.82227H147.257V33.1516H142.769Z" fill="#000628"/>
<path fill-rule="evenodd" clip-rule="evenodd" d="M152.251 32.9224C153.143 33.4011 154.226 33.6405 155.501 33.6405C157.04 33.6405 158.31 33.3793 159.312 32.857C160.109 32.4368 160.862 31.8138 161.572 30.9876V33.151H165.498V22.3802C165.498 21.5753 165.464 20.8462 165.398 20.1936C165.332 19.5408 165.124 18.8879 164.772 18.2352C164.144 17.0602 163.221 16.2334 162.001 15.7547C160.779 15.2759 159.383 15.0366 157.81 15.0366C155.666 15.0366 153.972 15.4936 152.729 16.4075C151.487 17.3213 150.641 18.5073 150.19 19.965L154.248 21.2378C154.533 20.4329 155.034 19.8726 155.748 19.5571C156.463 19.2416 157.15 19.0838 157.81 19.0838C158.998 19.0838 159.844 19.3287 160.35 19.8182C160.748 20.2027 160.989 20.758 161.075 21.4848C160.314 21.5987 159.595 21.7068 158.916 21.809C157.761 21.9724 156.727 22.1465 155.815 22.3313C154.902 22.5163 154.116 22.7286 153.455 22.9678C152.499 23.3158 151.734 23.7513 151.163 24.2735C150.601 24.7849 150.195 25.3774 149.942 26.052C149.689 26.7266 149.562 27.4721 149.562 28.2879C149.562 29.2669 149.788 30.1644 150.239 30.9805C150.701 31.7854 151.372 32.4328 152.251 32.9224ZM158.536 29.7238C157.975 30.0069 157.282 30.1484 156.458 30.1484C155.94 30.1484 155.495 30.0722 155.121 29.9198C154.748 29.7673 154.456 29.55 154.248 29.2669C154.049 28.9733 153.951 28.6249 153.951 28.2225C153.951 27.929 154.011 27.6621 154.132 27.4231C154.263 27.1835 154.461 26.9662 154.725 26.7702C155.001 26.5634 155.358 26.3732 155.798 26.199C156.182 26.0575 156.628 25.9269 157.134 25.8074C157.64 25.6877 158.305 25.5571 159.13 25.4155C159.66 25.3179 160.294 25.2063 161.033 25.0815C161.022 25.3918 161.005 25.7425 160.978 26.1337C160.944 26.7648 160.812 27.3196 160.582 27.7982C160.46 28.0483 160.23 28.3586 159.889 28.7284C159.559 29.0981 159.108 29.4303 158.536 29.7238Z" fill="#000628"/>
<path fill-rule="evenodd" clip-rule="evenodd" d="M12.3555 15.654H0.171265V20.9033C0.171265 28.7415 6.59415 35.0958 14.5171 35.0958C22.4402 35.0958 28.8633 28.7415 28.8633 20.9033V15.654H16.2859V7.29406C16.2859 3.96546 13.5583 1.26709 10.1938 1.26709C6.82919 1.26709 4.10166 3.96546 4.10166 7.29406H8.03204C8.03204 6.11293 8.9999 5.15545 10.1938 5.15545C11.3877 5.15545 12.3555 6.11293 12.3555 7.29406V15.654ZM12.3555 19.5425V26.9303H16.2859V19.5425H24.9329V20.9033C24.9329 26.5944 20.2695 31.2075 14.5171 31.2075C8.76486 31.2075 4.10166 26.5944 4.10166 20.9033V19.5425H12.3555Z" fill="#000628"/>
</g>
<defs>
<clipPath id="clip0_382_519">
<rect width="166.457" height="35.8523" fill="white"/>
</clipPath>
</defs>
</svg>
